{
    "asset" : {
        "generator" : "Khronos glTF Blender I/O v1.2.75",
        "version" : "2.0"
    },
    "scene" : 0,
    "scenes" : [
        {
            "name" : "Scene",
            "nodes" : [
                0
            ]
        }
    ],
    "nodes" : [
        {
            "mesh" : 0,
            "name" : "chair",
            "translation" : [
                -0.0022152590099722147,
                0.8915420770645142,
                -0.0012357182567939162
            ]
        }
    ],
    "meshes" : [
        {
            "name" : "Plane.014",
            "primitives" : [
                {
                    "attributes" : {
                        "POSITION" : 0,
                        "NORMAL" : 1,
                        "TEXCOORD_0" : 2
                    },
                    "indices" : 3
                }
            ]
        }
    ],
    "accessors" : [
        {
            "bufferView" : 0,
            "componentType" : 5126,
            "count" : 700,
            "max" : [
                0.5065232515335083,
                1.1532846689224243,
                0.5479909777641296
            ],
            "min" : [
                -0.8378626108169556,
                -0.891544759273529,
                -0.554673969745636
            ],
            "type" : "VEC3"
        },
        {
            "bufferView" : 1,
            "componentType" : 5126,
            "count" : 700,
            "type" : "VEC3"
        },
        {
            "bufferView" : 2,
            "componentType" : 5126,
            "count" : 700,
            "type" : "VEC2"
        },
        {
            "bufferView" : 3,
            "componentType" : 5123,
            "count" : 1188,
            "type" : "SCALAR"
        }
    ],
    "bufferViews" : [
        {
            "buffer" : 0,
            "byteLength" : 8400,
            "byteOffset" : 0
        },
        {
            "buffer" : 0,
            "byteLength" : 8400,
            "byteOffset" : 8400
        },
        {
            "buffer" : 0,
            "byteLength" : 5600,
            "byteOffset" : 16800
        },
        {
            "buffer" : 0,
            "byteLength" : 2376,
            "byteOffset" : 22400
        }
    ],
    "buffers" : [
        {
            "byteLength" : 24776,
            "uri" : "chair.bin"
        }
    ]
}
