{
    "asset" : {
        "generator" : "Khronos glTF Blender I/O v1.2.75",
        "version" : "2.0"
    },
    "scene" : 0,
    "scenes" : [
        {
            "name" : "Scene",
            "nodes" : [
                8
            ]
        }
    ],
    "nodes" : [
        {
            "mesh" : 0,
            "name" : "head",
            "translation" : [
                0.23461633920669556,
                2.31320858001709,
                0.05480910465121269
            ]
        },
        {
            "mesh" : 1,
            "name" : "shoulder.L",
            "translation" : [
                0.009578093886375427,
                1.8666248321533203,
                -0.63975989818573
            ]
        },
        {
            "mesh" : 2,
            "name" : "shoulder.R",
            "translation" : [
                -0.07206577062606812,
                1.7150306701660156,
                0.6280887126922607
            ]
        },
        {
            "mesh" : 3,
            "name" : "L-Leg-2_01 - Default_0",
            "translation" : [
                0.22304916381835938,
                -2.895338296890259,
                -0.019176185131072998
            ]
        },
        {
            "children" : [
                3
            ],
            "mesh" : 4,
            "name" : "upperleg.L",
            "translation" : [
                0.019618093967437744,
                0.01836109161376953,
                -0.33181050419807434
            ]
        },
        {
            "mesh" : 5,
            "name" : "R-Leg-2_01 - Default_0",
            "translation" : [
                -0.4418289065361023,
                -2.76041841506958,
                0.1506488025188446
            ]
        },
        {
            "children" : [
                5
            ],
            "mesh" : 6,
            "name" : "upperleg.R",
            "translation" : [
                0.018444672226905823,
                -0.11487817764282227,
                0.39566123485565186
            ]
        },
        {
            "children" : [
                0,
                1,
                2,
                4,
                6
            ],
            "mesh" : 7,
            "name" : "torso",
            "translation" : [
                -0.14771687984466553,
                2.882722854614258,
                -0.08690455555915833
            ]
        },
        {
            "children" : [
                7
            ],
            "name" : "baseframe"
        }
    ],
    "materials" : [
        {
            "doubleSided" : true,
            "emissiveFactor" : [
                0,
                0,
                0
            ],
            "name" : "01_-_Default",
            "pbrMetallicRoughness" : {
                "baseColorTexture" : {
                    "index" : 0,
                    "texCoord" : 0
                },
                "metallicFactor" : 0.4000000059604645,
                "roughnessFactor" : 0.800000011920929
            }
        }
    ],
    "meshes" : [
        {
            "name" : "Skull_01 - Default_0",
            "primitives" : [
                {
                    "attributes" : {
                        "POSITION" : 0,
                        "NORMAL" : 1,
                        "TANGENT" : 2,
                        "TEXCOORD_0" : 3
                    },
                    "indices" : 4,
                    "material" : 0
                }
            ]
        },
        {
            "name" : "L-hand_01 - Default_0",
            "primitives" : [
                {
                    "attributes" : {
                        "POSITION" : 5,
                        "NORMAL" : 6,
                        "TANGENT" : 7,
                        "TEXCOORD_0" : 8
                    },
                    "indices" : 9,
                    "material" : 0
                }
            ]
        },
        {
            "name" : "R-hand_01 - Default_0",
            "primitives" : [
                {
                    "attributes" : {
                        "POSITION" : 10,
                        "NORMAL" : 11,
                        "TANGENT" : 12,
                        "TEXCOORD_0" : 13
                    },
                    "indices" : 14,
                    "material" : 0
                }
            ]
        },
        {
            "name" : "L-Leg-2_01 - Default_0",
            "primitives" : [
                {
                    "attributes" : {
                        "POSITION" : 15,
                        "NORMAL" : 16,
                        "TANGENT" : 17,
                        "TEXCOORD_0" : 18
                    },
                    "indices" : 19,
                    "material" : 0
                }
            ]
        },
        {
            "name" : "L-Leg-1_01 - Default_0",
            "primitives" : [
                {
                    "attributes" : {
                        "POSITION" : 20,
                        "NORMAL" : 21,
                        "TANGENT" : 22,
                        "TEXCOORD_0" : 23
                    },
                    "indices" : 24,
                    "material" : 0
                }
            ]
        },
        {
            "name" : "R-Leg-2_01 - Default_0",
            "primitives" : [
                {
                    "attributes" : {
                        "POSITION" : 25,
                        "NORMAL" : 26,
                        "TANGENT" : 27,
                        "TEXCOORD_0" : 28
                    },
                    "indices" : 29,
                    "material" : 0
                }
            ]
        },
        {
            "name" : "R-Leg-1_01 - Default_0",
            "primitives" : [
                {
                    "attributes" : {
                        "POSITION" : 30,
                        "NORMAL" : 31,
                        "TANGENT" : 32,
                        "TEXCOORD_0" : 33
                    },
                    "indices" : 34,
                    "material" : 0
                }
            ]
        },
        {
            "name" : "Spine_01 - Default_0",
            "primitives" : [
                {
                    "attributes" : {
                        "POSITION" : 35,
                        "NORMAL" : 36,
                        "TANGENT" : 37,
                        "TEXCOORD_0" : 38
                    },
                    "indices" : 39,
                    "material" : 0
                }
            ]
        }
    ],
    "textures" : [
        {
            "source" : 0
        }
    ],
    "images" : [
        {
            "mimeType" : "image/jpeg",
            "name" : "01_-_Default_baseColor",
            "uri" : "textures/01_-_Default_baseColor.jpg"
        }
    ],
    "accessors" : [
        {
            "bufferView" : 0,
            "componentType" : 5126,
            "count" : 1020,
            "max" : [
                0.6677891612052917,
                0.9587270617485046,
                0.42674604058265686
            ],
            "min" : [
                -0.43142879009246826,
                -0.2591007947921753,
                -0.47588905692100525
            ],
            "type" : "VEC3"
        },
        {
            "bufferView" : 1,
            "componentType" : 5126,
            "count" : 1020,
            "type" : "VEC3"
        },
        {
            "bufferView" : 2,
            "componentType" : 5126,
            "count" : 1020,
            "type" : "VEC4"
        },
        {
            "bufferView" : 3,
            "componentType" : 5126,
            "count" : 1020,
            "type" : "VEC2"
        },
        {
            "bufferView" : 4,
            "componentType" : 5123,
            "count" : 1470,
            "type" : "SCALAR"
        },
        {
            "bufferView" : 5,
            "componentType" : 5126,
            "count" : 151,
            "max" : [
                0.11075213551521301,
                0.11498361080884933,
                0.143877774477005
            ],
            "min" : [
                -0.8508535027503967,
                -2.288571834564209,
                -0.6135231852531433
            ],
            "type" : "VEC3"
        },
        {
            "bufferView" : 6,
            "componentType" : 5126,
            "count" : 151,
            "type" : "VEC3"
        },
        {
            "bufferView" : 7,
            "componentType" : 5126,
            "count" : 151,
            "type" : "VEC4"
        },
        {
            "bufferView" : 8,
            "componentType" : 5126,
            "count" : 151,
            "type" : "VEC2"
        },
        {
            "bufferView" : 9,
            "componentType" : 5123,
            "count" : 312,
            "type" : "SCALAR"
        },
        {
            "bufferView" : 10,
            "componentType" : 5126,
            "count" : 151,
            "max" : [
                0.10702383518218994,
                0.09516512602567673,
                0.5176931023597717
            ],
            "min" : [
                -0.6075623631477356,
                -2.3020811080932617,
                -0.1341090202331543
            ],
            "type" : "VEC3"
        },
        {
            "bufferView" : 11,
            "componentType" : 5126,
            "count" : 151,
            "type" : "VEC3"
        },
        {
            "bufferView" : 12,
            "componentType" : 5126,
            "count" : 151,
            "type" : "VEC4"
        },
        {
            "bufferView" : 13,
            "componentType" : 5126,
            "count" : 151,
            "type" : "VEC2"
        },
        {
            "bufferView" : 14,
            "componentType" : 5123,
            "count" : 312,
            "type" : "SCALAR"
        },
        {
            "bufferView" : 15,
            "componentType" : 5126,
            "count" : 96,
            "max" : [
                0.6280415654182434,
                1.8347456455230713,
                0.2729054391384125
            ],
            "min" : [
                -0.4671216309070587,
                -0.06059557572007179,
                -0.3146025240421295
            ],
            "type" : "VEC3"
        },
        {
            "bufferView" : 16,
            "componentType" : 5126,
            "count" : 96,
            "type" : "VEC3"
        },
        {
            "bufferView" : 17,
            "componentType" : 5126,
            "count" : 96,
            "type" : "VEC4"
        },
        {
            "bufferView" : 18,
            "componentType" : 5126,
            "count" : 96,
            "type" : "VEC2"
        },
        {
            "bufferView" : 19,
            "componentType" : 5123,
            "count" : 144,
            "type" : "SCALAR"
        },
        {
            "bufferView" : 20,
            "componentType" : 5126,
            "count" : 56,
            "max" : [
                0.4102866053581238,
                0.13644108176231384,
                0.18610318005084991
            ],
            "min" : [
                -0.15683409571647644,
                -1.3422185182571411,
                -0.19850890338420868
            ],
            "type" : "VEC3"
        },
        {
            "bufferView" : 21,
            "componentType" : 5126,
            "count" : 56,
            "type" : "VEC3"
        },
        {
            "bufferView" : 22,
            "componentType" : 5126,
            "count" : 56,
            "type" : "VEC4"
        },
        {
            "bufferView" : 23,
            "componentType" : 5126,
            "count" : 56,
            "type" : "VEC2"
        },
        {
            "bufferView" : 24,
            "componentType" : 5123,
            "count" : 84,
            "type" : "SCALAR"
        },
        {
            "bufferView" : 25,
            "componentType" : 5126,
            "count" : 96,
            "max" : [
                0.700874388217926,
                1.7013083696365356,
                0.35357239842414856
            ],
            "min" : [
                -0.459616094827652,
                -0.011991171166300774,
                -0.2864297926425934
            ],
            "type" : "VEC3"
        },
        {
            "bufferView" : 26,
            "componentType" : 5126,
            "count" : 96,
            "type" : "VEC3"
        },
        {
            "bufferView" : 27,
            "componentType" : 5126,
            "count" : 96,
            "type" : "VEC4"
        },
        {
            "bufferView" : 28,
            "componentType" : 5126,
            "count" : 96,
            "type" : "VEC2"
        },
        {
            "bufferView" : 29,
            "componentType" : 5123,
            "count" : 144,
            "type" : "SCALAR"
        },
        {
            "bufferView" : 30,
            "componentType" : 5126,
            "count" : 56,
            "max" : [
                0.28246232867240906,
                0.151772141456604,
                0.21640227735042572
            ],
            "min" : [
                -0.11912431567907333,
                -1.3740959167480469,
                -0.17081336677074432
            ],
            "type" : "VEC3"
        },
        {
            "bufferView" : 31,
            "componentType" : 5126,
            "count" : 56,
            "type" : "VEC3"
        },
        {
            "bufferView" : 32,
            "componentType" : 5126,
            "count" : 56,
            "type" : "VEC4"
        },
        {
            "bufferView" : 33,
            "componentType" : 5126,
            "count" : 56,
            "type" : "VEC2"
        },
        {
            "bufferView" : 34,
            "componentType" : 5123,
            "count" : 84,
            "type" : "SCALAR"
        },
        {
            "bufferView" : 35,
            "componentType" : 5126,
            "count" : 986,
            "max" : [
                0.48063045740127563,
                2.3933143615722656,
                0.7353295683860779
            ],
            "min" : [
                -0.4901597797870636,
                -0.20350362360477448,
                -0.6773683428764343
            ],
            "type" : "VEC3"
        },
        {
            "bufferView" : 36,
            "componentType" : 5126,
            "count" : 986,
            "type" : "VEC3"
        },
        {
            "bufferView" : 37,
            "componentType" : 5126,
            "count" : 986,
            "type" : "VEC4"
        },
        {
            "bufferView" : 38,
            "componentType" : 5126,
            "count" : 986,
            "type" : "VEC2"
        },
        {
            "bufferView" : 39,
            "componentType" : 5123,
            "count" : 1440,
            "type" : "SCALAR"
        }
    ],
    "bufferViews" : [
        {
            "buffer" : 0,
            "byteLength" : 12240,
            "byteOffset" : 0
        },
        {
            "buffer" : 0,
            "byteLength" : 12240,
            "byteOffset" : 12240
        },
        {
            "buffer" : 0,
            "byteLength" : 16320,
            "byteOffset" : 24480
        },
        {
            "buffer" : 0,
            "byteLength" : 8160,
            "byteOffset" : 40800
        },
        {
            "buffer" : 0,
            "byteLength" : 2940,
            "byteOffset" : 48960
        },
        {
            "buffer" : 0,
            "byteLength" : 1812,
            "byteOffset" : 51900
        },
        {
            "buffer" : 0,
            "byteLength" : 1812,
            "byteOffset" : 53712
        },
        {
            "buffer" : 0,
            "byteLength" : 2416,
            "byteOffset" : 55524
        },
        {
            "buffer" : 0,
            "byteLength" : 1208,
            "byteOffset" : 57940
        },
        {
            "buffer" : 0,
            "byteLength" : 624,
            "byteOffset" : 59148
        },
        {
            "buffer" : 0,
            "byteLength" : 1812,
            "byteOffset" : 59772
        },
        {
            "buffer" : 0,
            "byteLength" : 1812,
            "byteOffset" : 61584
        },
        {
            "buffer" : 0,
            "byteLength" : 2416,
            "byteOffset" : 63396
        },
        {
            "buffer" : 0,
            "byteLength" : 1208,
            "byteOffset" : 65812
        },
        {
            "buffer" : 0,
            "byteLength" : 624,
            "byteOffset" : 67020
        },
        {
            "buffer" : 0,
            "byteLength" : 1152,
            "byteOffset" : 67644
        },
        {
            "buffer" : 0,
            "byteLength" : 1152,
            "byteOffset" : 68796
        },
        {
            "buffer" : 0,
            "byteLength" : 1536,
            "byteOffset" : 69948
        },
        {
            "buffer" : 0,
            "byteLength" : 768,
            "byteOffset" : 71484
        },
        {
            "buffer" : 0,
            "byteLength" : 288,
            "byteOffset" : 72252
        },
        {
            "buffer" : 0,
            "byteLength" : 672,
            "byteOffset" : 72540
        },
        {
            "buffer" : 0,
            "byteLength" : 672,
            "byteOffset" : 73212
        },
        {
            "buffer" : 0,
            "byteLength" : 896,
            "byteOffset" : 73884
        },
        {
            "buffer" : 0,
            "byteLength" : 448,
            "byteOffset" : 74780
        },
        {
            "buffer" : 0,
            "byteLength" : 168,
            "byteOffset" : 75228
        },
        {
            "buffer" : 0,
            "byteLength" : 1152,
            "byteOffset" : 75396
        },
        {
            "buffer" : 0,
            "byteLength" : 1152,
            "byteOffset" : 76548
        },
        {
            "buffer" : 0,
            "byteLength" : 1536,
            "byteOffset" : 77700
        },
        {
            "buffer" : 0,
            "byteLength" : 768,
            "byteOffset" : 79236
        },
        {
            "buffer" : 0,
            "byteLength" : 288,
            "byteOffset" : 80004
        },
        {
            "buffer" : 0,
            "byteLength" : 672,
            "byteOffset" : 80292
        },
        {
            "buffer" : 0,
            "byteLength" : 672,
            "byteOffset" : 80964
        },
        {
            "buffer" : 0,
            "byteLength" : 896,
            "byteOffset" : 81636
        },
        {
            "buffer" : 0,
            "byteLength" : 448,
            "byteOffset" : 82532
        },
        {
            "buffer" : 0,
            "byteLength" : 168,
            "byteOffset" : 82980
        },
        {
            "buffer" : 0,
            "byteLength" : 11832,
            "byteOffset" : 83148
        },
        {
            "buffer" : 0,
            "byteLength" : 11832,
            "byteOffset" : 94980
        },
        {
            "buffer" : 0,
            "byteLength" : 15776,
            "byteOffset" : 106812
        },
        {
            "buffer" : 0,
            "byteLength" : 7888,
            "byteOffset" : 122588
        },
        {
            "buffer" : 0,
            "byteLength" : 2880,
            "byteOffset" : 130476
        }
    ],
    "buffers" : [
        {
            "byteLength" : 133356,
            "uri" : "scene.bin"
        }
    ]
}
